<?xml version="1.0" encoding="utf-8" standalone="no"?>
<!DOCTYPE svg PUBLIC "-//W3C//DTD SVG 1.1//EN"
  "http://www.w3.org/Graphics/SVG/1.1/DTD/svg11.dtd">
<svg xmlns:xlink="http://www.w3.org/1999/xlink" width="576pt" height="432pt" viewBox="0 0 576 432" xmlns="http://www.w3.org/2000/svg" version="1.1">
 <metadata>
  <rdf:RDF xmlns:dc="http://purl.org/dc/elements/1.1/" xmlns:cc="http://creativecommons.org/ns#" xmlns:rdf="http://www.w3.org/1999/02/22-rdf-syntax-ns#">
   <cc:Work>
    <dc:type rdf:resource="http://purl.org/dc/dcmitype/StillImage"/>
    <dc:date>2026-09-08T17:22:15.406923</dc:date>
    <dc:format>image/svg+xml</dc:format>
    <dc:creator>
     <cc:Agent>
      <dc:title>Matplotlib v3.11.1, https://matplotlib.org/</dc:title>
     </cc:Agent>
    </dc:creator>
   </cc:Work>
  </rdf:RDF>
 </metadata>
 <defs>
  <style type="text/css">*{stroke-linejoin: round; stroke-linecap: butt}</style>
 </defs>
 <g id="figure_1">
  <g id="patch_1">
   <path d="M 0 432 
L 576 432 
L 576 0 
L 0 0 
z
" style="fill: #ffffff"/>
  </g>
  <g id="axes_1">
   <g id="patch_2">
    <path d="M 56.603047 383.836953 
L 550.44 383.836953 
L 550.44 18.36 
L 56.603047 18.36 
z
" style="fill: #ffffff"/>
   </g>
   <g id="matplotlib.axis_1">
    <g id="xtick_1">
     <g id="line2d_1">
      <path d="M 56.603047 383.836953 
L 56.603047 18.36 
" clip-path="url(#p138ba97507)" style="fill: none; stroke: #b0b0b0; stroke-opacity: 0.15; stroke-width: 0.8; stroke-linecap: square"/>
     </g>
     <g id="line2d_2">
      <defs>
       <path id="m419f231bb4" d="M 0 0 
L 0 3.5 
" style="stroke: #000000; stroke-width: 0.8"/>
      </defs>
      <g>
       <use xlink:href="#m419f231bb4" x="56.603047" y="383.836953" style="stroke: #000000; stroke-width: 0.8"/>
      </g>
     </g>
     <g id="text_1">
      <!-- 1.00 -->
      <g transform="translate(44.356953 399.194375) scale(0.11 -0.11)">
       <defs>
        <path id="DejaVuSans-14" d="M 794 531 
L 1825 531 
L 1825 4091 
L 703 3866 
L 703 4441 
L 1819 4666 
L 2450 4666 
L 2450 531 
L 3481 531 
L 3481 0 
L 794 0 
L 794 531 
z
" transform="scale(0.015625)"/>
        <path id="DejaVuSans-11" d="M 684 794 
L 1344 794 
L 1344 0 
L 684 0 
L 684 794 
z
" transform="scale(0.015625)"/>
        <path id="DejaVuSans-13" d="M 2034 4250 
Q 1547 4250 1301 3770 
Q 1056 3291 1056 2328 
Q 1056 1369 1301 889 
Q 1547 409 2034 409 
Q 2525 409 2770 889 
Q 3016 1369 3016 2328 
Q 3016 3291 2770 3770 
Q 2525 4250 2034 4250 
z
M 2034 4750 
Q 2819 4750 3233 4129 
Q 3647 3509 3647 2328 
Q 3647 1150 3233 529 
Q 2819 -91 2034 -91 
Q 1250 -91 836 529 
Q 422 1150 422 2328 
Q 422 3509 836 4129 
Q 1250 4750 2034 4750 
z
" transform="scale(0.015625)"/>
       </defs>
       <use xlink:href="#DejaVuSans-14"/>
       <use xlink:href="#DejaVuSans-11" transform="translate(63.625 0)"/>
       <use xlink:href="#DejaVuSans-13" transform="translate(95.40625 0)"/>
       <use xlink:href="#DejaVuSans-13" transform="translate(159.03125 0)"/>
      </g>
     </g>
    </g>
    <g id="xtick_2">
     <g id="line2d_3">
      <path d="M 118.332666 383.836953 
L 118.332666 18.36 
" clip-path="url(#p138ba97507)" style="fill: none; stroke: #b0b0b0; stroke-opacity: 0.15; stroke-width: 0.8; stroke-linecap: square"/>
     </g>
     <g id="line2d_4">
      <g>
       <use xlink:href="#m419f231bb4" x="118.332666" y="383.836953" style="stroke: #000000; stroke-width: 0.8"/>
      </g>
     </g>
     <g id="text_2">
      <!-- 1.25 -->
      <g transform="translate(106.086572 399.194375) scale(0.11 -0.11)">
       <defs>
        <path id="DejaVuSans-15" d="M 1228 531 
L 3431 531 
L 3431 0 
L 469 0 
L 469 531 
Q 828 903 1448 1529 
Q 2069 2156 2228 2338 
Q 2531 2678 2651 2914 
Q 2772 3150 2772 3378 
Q 2772 3750 2511 3984 
Q 2250 4219 1831 4219 
Q 1534 4219 1204 4116 
Q 875 4013 500 3803 
L 500 4441 
Q 881 4594 1212 4672 
Q 1544 4750 1819 4750 
Q 2544 4750 2975 4387 
Q 3406 4025 3406 3419 
Q 3406 3131 3298 2873 
Q 3191 2616 2906 2266 
Q 2828 2175 2409 1742 
Q 1991 1309 1228 531 
z
" transform="scale(0.015625)"/>
        <path id="DejaVuSans-18" d="M 691 4666 
L 3169 4666 
L 3169 4134 
L 1269 4134 
L 1269 2991 
Q 1406 3038 1543 3061 
Q 1681 3084 1819 3084 
Q 2600 3084 3056 2656 
Q 3513 2228 3513 1497 
Q 3513 744 3044 326 
Q 2575 -91 1722 -91 
Q 1428 -91 1123 -41 
Q 819 9 494 109 
L 494 744 
Q 775 591 1075 516 
Q 1375 441 1709 441 
Q 2250 441 2565 725 
Q 2881 1009 2881 1497 
Q 2881 1984 2565 2268 
Q 2250 2553 1709 2553 
Q 1456 2553 1204 2497 
Q 953 2441 691 2322 
L 691 4666 
z
" transform="scale(0.015625)"/>
       </defs>
       <use xlink:href="#DejaVuSans-14"/>
       <use xlink:href="#DejaVuSans-11" transform="translate(63.625 0)"/>
       <use xlink:href="#DejaVuSans-15" transform="translate(95.40625 0)"/>
       <use xlink:href="#DejaVuSans-18" transform="translate(159.03125 0)"/>
      </g>
     </g>
    </g>
    <g id="xtick_3">
     <g id="line2d_5">
      <path d="M 180.062285 383.836953 
L 180.062285 18.36 
" clip-path="url(#p138ba97507)" style="fill: none; stroke: #b0b0b0; stroke-opacity: 0.15; stroke-width: 0.8; stroke-linecap: square"/>
     </g>
     <g id="line2d_6">
      <g>
       <use xlink:href="#m419f231bb4" x="180.062285" y="383.836953" style="stroke: #000000; stroke-width: 0.8"/>
      </g>
     </g>
     <g id="text_3">
      <!-- 1.50 -->
      <g transform="translate(167.816191 399.194375) scale(0.11 -0.11)">
       <use xlink:href="#DejaVuSans-14"/>
       <use xlink:href="#DejaVuSans-11" transform="translate(63.625 0)"/>
       <use xlink:href="#DejaVuSans-18" transform="translate(95.40625 0)"/>
       <use xlink:href="#DejaVuSans-13" transform="translate(159.03125 0)"/>
      </g>
     </g>
    </g>
    <g id="xtick_4">
     <g id="line2d_7">
      <path d="M 241.791904 383.836953 
L 241.791904 18.36 
" clip-path="url(#p138ba97507)" style="fill: none; stroke: #b0b0b0; stroke-opacity: 0.15; stroke-width: 0.8; stroke-linecap: square"/>
     </g>
     <g id="line2d_8">
      <g>
       <use xlink:href="#m419f231bb4" x="241.791904" y="383.836953" style="stroke: #000000; stroke-width: 0.8"/>
      </g>
     </g>
     <g id="text_4">
      <!-- 1.75 -->
      <g transform="translate(229.545811 399.194375) scale(0.11 -0.11)">
       <defs>
        <path id="DejaVuSans-1a" d="M 525 4666 
L 3525 4666 
L 3525 4397 
L 1831 0 
L 1172 0 
L 2766 4134 
L 525 4134 
L 525 4666 
z
" transform="scale(0.015625)"/>
       </defs>
       <use xlink:href="#DejaVuSans-14"/>
       <use xlink:href="#DejaVuSans-11" transform="translate(63.625 0)"/>
       <use xlink:href="#DejaVuSans-1a" transform="translate(95.40625 0)"/>
       <use xlink:href="#DejaVuSans-18" transform="translate(159.03125 0)"/>
      </g>
     </g>
    </g>
    <g id="xtick_5">
     <g id="line2d_9">
      <path d="M 303.521523 383.836953 
L 303.521523 18.36 
" clip-path="url(#p138ba97507)" style="fill: none; stroke: #b0b0b0; stroke-opacity: 0.15; stroke-width: 0.8; stroke-linecap: square"/>
     </g>
     <g id="line2d_10">
      <g>
       <use xlink:href="#m419f231bb4" x="303.521523" y="383.836953" style="stroke: #000000; stroke-width: 0.8"/>
      </g>
     </g>
     <g id="text_5">
      <!-- 2.00 -->
      <g transform="translate(291.27543 399.194375) scale(0.11 -0.11)">
       <use xlink:href="#DejaVuSans-15"/>
       <use xlink:href="#DejaVuSans-11" transform="translate(63.625 0)"/>
       <use xlink:href="#DejaVuSans-13" transform="translate(95.40625 0)"/>
       <use xlink:href="#DejaVuSans-13" transform="translate(159.03125 0)"/>
      </g>
     </g>
    </g>
    <g id="xtick_6">
     <g id="line2d_11">
      <path d="M 365.251143 383.836953 
L 365.251143 18.36 
" clip-path="url(#p138ba97507)" style="fill: none; stroke: #b0b0b0; stroke-opacity: 0.15; stroke-width: 0.8; stroke-linecap: square"/>
     </g>
     <g id="line2d_12">
      <g>
       <use xlink:href="#m419f231bb4" x="365.251143" y="383.836953" style="stroke: #000000; stroke-width: 0.8"/>
      </g>
     </g>
     <g id="text_6">
      <!-- 2.25 -->
      <g transform="translate(353.005049 399.194375) scale(0.11 -0.11)">
       <use xlink:href="#DejaVuSans-15"/>
       <use xlink:href="#DejaVuSans-11" transform="translate(63.625 0)"/>
       <use xlink:href="#DejaVuSans-15" transform="translate(95.40625 0)"/>
       <use xlink:href="#DejaVuSans-18" transform="translate(159.03125 0)"/>
      </g>
     </g>
    </g>
    <g id="xtick_7">
     <g id="line2d_13">
      <path d="M 426.980762 383.836953 
L 426.980762 18.36 
" clip-path="url(#p138ba97507)" style="fill: none; stroke: #b0b0b0; stroke-opacity: 0.15; stroke-width: 0.8; stroke-linecap: square"/>
     </g>
     <g id="line2d_14">
      <g>
       <use xlink:href="#m419f231bb4" x="426.980762" y="383.836953" style="stroke: #000000; stroke-width: 0.8"/>
      </g>
     </g>
     <g id="text_7">
      <!-- 2.50 -->
      <g transform="translate(414.734668 399.194375) scale(0.11 -0.11)">
       <use xlink:href="#DejaVuSans-15"/>
       <use xlink:href="#DejaVuSans-11" transform="translate(63.625 0)"/>
       <use xlink:href="#DejaVuSans-18" transform="translate(95.40625 0)"/>
       <use xlink:href="#DejaVuSans-13" transform="translate(159.03125 0)"/>
      </g>
     </g>
    </g>
    <g id="xtick_8">
     <g id="line2d_15">
      <path d="M 488.710381 383.836953 
L 488.710381 18.36 
" clip-path="url(#p138ba97507)" style="fill: none; stroke: #b0b0b0; stroke-opacity: 0.15; stroke-width: 0.8; stroke-linecap: square"/>
     </g>
     <g id="line2d_16">
      <g>
       <use xlink:href="#m419f231bb4" x="488.710381" y="383.836953" style="stroke: #000000; stroke-width: 0.8"/>
      </g>
     </g>
     <g id="text_8">
      <!-- 2.75 -->
      <g transform="translate(476.464287 399.194375) scale(0.11 -0.11)">
       <use xlink:href="#DejaVuSans-15"/>
       <use xlink:href="#DejaVuSans-11" transform="translate(63.625 0)"/>
       <use xlink:href="#DejaVuSans-1a" transform="translate(95.40625 0)"/>
       <use xlink:href="#DejaVuSans-18" transform="translate(159.03125 0)"/>
      </g>
     </g>
    </g>
    <g id="xtick_9">
     <g id="line2d_17">
      <path d="M 550.44 383.836953 
L 550.44 18.36 
" clip-path="url(#p138ba97507)" style="fill: none; stroke: #b0b0b0; stroke-opacity: 0.15; stroke-width: 0.8; stroke-linecap: square"/>
     </g>
     <g id="line2d_18">
      <g>
       <use xlink:href="#m419f231bb4" x="550.44" y="383.836953" style="stroke: #000000; stroke-width: 0.8"/>
      </g>
     </g>
     <g id="text_9">
      <!-- 3.00 -->
      <g transform="translate(538.193906 399.194375) scale(0.11 -0.11)">
       <defs>
        <path id="DejaVuSans-16" d="M 2597 2516 
Q 3050 2419 3304 2112 
Q 3559 1806 3559 1356 
Q 3559 666 3084 287 
Q 2609 -91 1734 -91 
Q 1441 -91 1130 -33 
Q 819 25 488 141 
L 488 750 
Q 750 597 1062 519 
Q 1375 441 1716 441 
Q 2309 441 2620 675 
Q 2931 909 2931 1356 
Q 2931 1769 2642 2001 
Q 2353 2234 1838 2234 
L 1294 2234 
L 1294 2753 
L 1863 2753 
Q 2328 2753 2575 2939 
Q 2822 3125 2822 3475 
Q 2822 3834 2567 4026 
Q 2313 4219 1838 4219 
Q 1578 4219 1281 4162 
Q 984 4106 628 3988 
L 628 4550 
Q 988 4650 1302 4700 
Q 1616 4750 1894 4750 
Q 2613 4750 3031 4423 
Q 3450 4097 3450 3541 
Q 3450 3153 3228 2886 
Q 3006 2619 2597 2516 
z
" transform="scale(0.015625)"/>
       </defs>
       <use xlink:href="#DejaVuSans-16"/>
       <use xlink:href="#DejaVuSans-11" transform="translate(63.625 0)"/>
       <use xlink:href="#DejaVuSans-13" transform="translate(95.40625 0)"/>
       <use xlink:href="#DejaVuSans-13" transform="translate(159.03125 0)"/>
      </g>
     </g>
    </g>
    <g id="text_10">
     <!-- $M\ (M_\odot)$ -->
     <g transform="translate(279.341523 415.716953) scale(0.13 -0.13)">
      <defs>
       <path id="DejaVuSans-Oblique-30" d="M 1081 4666 
L 2028 4666 
L 2572 1522 
L 4378 4666 
L 5350 4666 
L 4441 0 
L 3828 0 
L 4622 4091 
L 2791 897 
L 2175 897 
L 1581 4103 
L 788 0 
L 172 0 
L 1081 4666 
z
" transform="scale(0.015625)"/>
       <path id="DejaVuSans-b" d="M 1984 4856 
Q 1566 4138 1362 3434 
Q 1159 2731 1159 2009 
Q 1159 1288 1364 580 
Q 1569 -128 1984 -844 
L 1484 -844 
Q 1016 -109 783 600 
Q 550 1309 550 2009 
Q 550 2706 781 3412 
Q 1013 4119 1484 4856 
L 1984 4856 
z
" transform="scale(0.015625)"/>
       <path id="DejaVuSans-d23" d="M 2350 2403 
L 3013 2403 
L 3013 1609 
L 2350 1609 
L 2350 2403 
z
M 3306 3522 
Q 3016 3644 2681 3644 
Q 2347 3644 2056 3522 
Q 1769 3400 1531 3163 
Q 1291 2922 1172 2634 
Q 1053 2347 1053 2006 
Q 1053 1675 1172 1387 
Q 1291 1100 1531 859 
Q 1769 622 2056 500 
Q 2347 378 2681 378 
Q 3016 378 3306 500 
Q 3594 622 3831 859 
Q 4072 1100 4190 1387 
Q 4309 1675 4309 2006 
Q 4309 2347 4190 2634 
Q 4072 2922 3831 3163 
Q 3594 3400 3306 3522 
z
M 1878 3956 
Q 2250 4113 2681 4113 
Q 3113 4113 3484 3956 
Q 3856 3800 4163 3494 
Q 4472 3184 4625 2813 
Q 4778 2444 4778 2006 
Q 4778 1578 4625 1206 
Q 4472 838 4163 528 
Q 3856 222 3484 65 
Q 3113 -91 2681 -91 
Q 2250 -91 1878 65 
Q 1506 222 1200 528 
Q 891 838 738 1206 
Q 584 1578 584 2006 
Q 584 2444 738 2813 
Q 891 3184 1200 3494 
Q 1506 3800 1878 3956 
z
" transform="scale(0.015625)"/>
       <path id="DejaVuSans-c" d="M 513 4856 
L 1013 4856 
Q 1481 4119 1714 3412 
Q 1947 2706 1947 2009 
Q 1947 1309 1714 600 
Q 1481 -109 1013 -844 
L 513 -844 
Q 928 -128 1133 580 
Q 1338 1288 1338 2009 
Q 1338 2731 1133 3434 
Q 928 4138 513 4856 
z
" transform="scale(0.015625)"/>
      </defs>
      <use xlink:href="#DejaVuSans-Oblique-30" transform="translate(0 0.125)"/>
      <use xlink:href="#DejaVuSans-b" transform="translate(118.749675 0.125)"/>
      <use xlink:href="#DejaVuSans-Oblique-30" transform="translate(157.763347 0.125)"/>
      <use xlink:href="#DejaVuSans-d23" transform="translate(257.680339 -14.874951) scale(0.7)"/>
      <use xlink:href="#DejaVuSans-c" transform="translate(332.704753 0.125)"/>
     </g>
    </g>
   </g>
   <g id="matplotlib.axis_2">
    <g id="ytick_1">
     <g id="line2d_19">
      <path d="M 56.603047 383.836953 
L 550.44 383.836953 
" clip-path="url(#p138ba97507)" style="fill: none; stroke: #b0b0b0; stroke-opacity: 0.15; stroke-width: 0.8; stroke-linecap: square"/>
     </g>
     <g id="line2d_20">
      <defs>
       <path id="mb46973741b" d="M 0 0 
L -3.5 0 
" style="stroke: #000000; stroke-width: 0.8"/>
      </defs>
      <g>
       <use xlink:href="#mb46973741b" x="56.603047" y="383.836953" style="stroke: #000000; stroke-width: 0.8"/>
      </g>
     </g>
     <g id="text_11">
      <!-- $\mathdefault{10^{0}}$ -->
      <g transform="translate(30.243047 389.006953) scale(0.11 -0.11)">
       <use xlink:href="#DejaVuSans-14" transform="translate(0 0.746875)"/>
       <use xlink:href="#DejaVuSans-13" transform="translate(63.623047 0.746875)"/>
       <use xlink:href="#DejaVuSans-13" transform="translate(128.203125 42.046875) scale(0.7)"/>
      </g>
     </g>
    </g>
    <g id="ytick_2">
     <g id="line2d_21">
      <path d="M 56.603047 292.467715 
L 550.44 292.467715 
" clip-path="url(#p138ba97507)" style="fill: none; stroke: #b0b0b0; stroke-opacity: 0.15; stroke-width: 0.8; stroke-linecap: square"/>
     </g>
     <g id="line2d_22">
      <g>
       <use xlink:href="#mb46973741b" x="56.603047" y="292.467715" style="stroke: #000000; stroke-width: 0.8"/>
      </g>
     </g>
     <g id="text_12">
      <!-- $\mathdefault{10^{1}}$ -->
      <g transform="translate(30.243047 297.582715) scale(0.11 -0.11)">
       <use xlink:href="#DejaVuSans-14" transform="translate(0 0.665625)"/>
       <use xlink:href="#DejaVuSans-13" transform="translate(63.623047 0.665625)"/>
       <use xlink:href="#DejaVuSans-14" transform="translate(128.203125 41.965625) scale(0.7)"/>
      </g>
     </g>
    </g>
    <g id="ytick_3">
     <g id="line2d_23">
      <path d="M 56.603047 201.098477 
L 550.44 201.098477 
" clip-path="url(#p138ba97507)" style="fill: none; stroke: #b0b0b0; stroke-opacity: 0.15; stroke-width: 0.8; stroke-linecap: square"/>
     </g>
     <g id="line2d_24">
      <g>
       <use xlink:href="#mb46973741b" x="56.603047" y="201.098477" style="stroke: #000000; stroke-width: 0.8"/>
      </g>
     </g>
     <g id="text_13">
      <!-- $\mathdefault{10^{2}}$ -->
      <g transform="translate(30.243047 206.268477) scale(0.11 -0.11)">
       <use xlink:href="#DejaVuSans-14" transform="translate(0 0.746875)"/>
       <use xlink:href="#DejaVuSans-13" transform="translate(63.623047 0.746875)"/>
       <use xlink:href="#DejaVuSans-15" transform="translate(128.203125 42.046875) scale(0.7)"/>
      </g>
     </g>
    </g>
    <g id="ytick_4">
     <g id="line2d_25">
      <path d="M 56.603047 109.729238 
L 550.44 109.729238 
" clip-path="url(#p138ba97507)" style="fill: none; stroke: #b0b0b0; stroke-opacity: 0.15; stroke-width: 0.8; stroke-linecap: square"/>
     </g>
     <g id="line2d_26">
      <g>
       <use xlink:href="#mb46973741b" x="56.603047" y="109.729238" style="stroke: #000000; stroke-width: 0.8"/>
      </g>
     </g>
     <g id="text_14">
      <!-- $\mathdefault{10^{3}}$ -->
      <g transform="translate(30.243047 114.899238) scale(0.11 -0.11)">
       <use xlink:href="#DejaVuSans-14" transform="translate(0 0.746875)"/>
       <use xlink:href="#DejaVuSans-13" transform="translate(63.623047 0.746875)"/>
       <use xlink:href="#DejaVuSans-16" transform="translate(128.203125 42.046875) scale(0.7)"/>
      </g>
     </g>
    </g>
    <g id="ytick_5">
     <g id="line2d_27">
      <path d="M 56.603047 18.36 
L 550.44 18.36 
" clip-path="url(#p138ba97507)" style="fill: none; stroke: #b0b0b0; stroke-opacity: 0.15; stroke-width: 0.8; stroke-linecap: square"/>
     </g>
     <g id="line2d_28">
      <g>
       <use xlink:href="#mb46973741b" x="56.603047" y="18.36" style="stroke: #000000; stroke-width: 0.8"/>
      </g>
     </g>
     <g id="text_15">
      <!-- $\mathdefault{10^{4}}$ -->
      <g transform="translate(30.243047 23.475) scale(0.11 -0.11)">
       <defs>
        <path id="DejaVuSans-17" d="M 2419 4116 
L 825 1625 
L 2419 1625 
L 2419 4116 
z
M 2253 4666 
L 3047 4666 
L 3047 1625 
L 3713 1625 
L 3713 1100 
L 3047 1100 
L 3047 0 
L 2419 0 
L 2419 1100 
L 313 1100 
L 313 1709 
L 2253 4666 
z
" transform="scale(0.015625)"/>
       </defs>
       <use xlink:href="#DejaVuSans-14" transform="translate(0 0.665625)"/>
       <use xlink:href="#DejaVuSans-13" transform="translate(63.623047 0.665625)"/>
       <use xlink:href="#DejaVuSans-17" transform="translate(128.203125 41.965625) scale(0.7)"/>
      </g>
     </g>
    </g>
    <g id="ytick_6">
     <g id="line2d_29">
      <path d="M 56.603047 356.332072 
L 550.44 356.332072 
" clip-path="url(#p138ba97507)" style="fill: none; stroke: #b0b0b0; stroke-opacity: 0.15; stroke-width: 0.8; stroke-linecap: square"/>
     </g>
     <g id="line2d_30">
      <defs>
       <path id="m7301604bbb" d="M 0 0 
L -2 0 
" style="stroke: #000000; stroke-width: 0.6"/>
      </defs>
      <g>
       <use xlink:href="#m7301604bbb" x="56.603047" y="356.332072" style="stroke: #000000; stroke-width: 0.6"/>
      </g>
     </g>
    </g>
    <g id="ytick_7">
     <g id="line2d_31">
      <path d="M 56.603047 340.242748 
L 550.44 340.242748 
" clip-path="url(#p138ba97507)" style="fill: none; stroke: #b0b0b0; stroke-opacity: 0.15; stroke-width: 0.8; stroke-linecap: square"/>
     </g>
     <g id="line2d_32">
      <g>
       <use xlink:href="#m7301604bbb" x="56.603047" y="340.242748" style="stroke: #000000; stroke-width: 0.6"/>
      </g>
     </g>
    </g>
    <g id="ytick_8">
     <g id="line2d_33">
      <path d="M 56.603047 328.82719 
L 550.44 328.82719 
" clip-path="url(#p138ba97507)" style="fill: none; stroke: #b0b0b0; stroke-opacity: 0.15; stroke-width: 0.8; stroke-linecap: square"/>
     </g>
     <g id="line2d_34">
      <g>
       <use xlink:href="#m7301604bbb" x="56.603047" y="328.82719" style="stroke: #000000; stroke-width: 0.6"/>
      </g>
     </g>
    </g>
    <g id="ytick_9">
     <g id="line2d_35">
      <path d="M 56.603047 319.972596 
L 550.44 319.972596 
" clip-path="url(#p138ba97507)" style="fill: none; stroke: #b0b0b0; stroke-opacity: 0.15; stroke-width: 0.8; stroke-linecap: square"/>
     </g>
     <g id="line2d_36">
      <g>
       <use xlink:href="#m7301604bbb" x="56.603047" y="319.972596" style="stroke: #000000; stroke-width: 0.6"/>
      </g>
     </g>
    </g>
    <g id="ytick_10">
     <g id="line2d_37">
      <path d="M 56.603047 312.737866 
L 550.44 312.737866 
" clip-path="url(#p138ba97507)" style="fill: none; stroke: #b0b0b0; stroke-opacity: 0.15; stroke-width: 0.8; stroke-linecap: square"/>
     </g>
     <g id="line2d_38">
      <g>
       <use xlink:href="#m7301604bbb" x="56.603047" y="312.737866" style="stroke: #000000; stroke-width: 0.6"/>
      </g>
     </g>
    </g>
    <g id="ytick_11">
     <g id="line2d_39">
      <path d="M 56.603047 306.620989 
L 550.44 306.620989 
" clip-path="url(#p138ba97507)" style="fill: none; stroke: #b0b0b0; stroke-opacity: 0.15; stroke-width: 0.8; stroke-linecap: square"/>
     </g>
     <g id="line2d_40">
      <g>
       <use xlink:href="#m7301604bbb" x="56.603047" y="306.620989" style="stroke: #000000; stroke-width: 0.6"/>
      </g>
     </g>
    </g>
    <g id="ytick_12">
     <g id="line2d_41">
      <path d="M 56.603047 301.322309 
L 550.44 301.322309 
" clip-path="url(#p138ba97507)" style="fill: none; stroke: #b0b0b0; stroke-opacity: 0.15; stroke-width: 0.8; stroke-linecap: square"/>
     </g>
     <g id="line2d_42">
      <g>
       <use xlink:href="#m7301604bbb" x="56.603047" y="301.322309" style="stroke: #000000; stroke-width: 0.6"/>
      </g>
     </g>
    </g>
    <g id="ytick_13">
     <g id="line2d_43">
      <path d="M 56.603047 296.648542 
L 550.44 296.648542 
" clip-path="url(#p138ba97507)" style="fill: none; stroke: #b0b0b0; stroke-opacity: 0.15; stroke-width: 0.8; stroke-linecap: square"/>
     </g>
     <g id="line2d_44">
      <g>
       <use xlink:href="#m7301604bbb" x="56.603047" y="296.648542" style="stroke: #000000; stroke-width: 0.6"/>
      </g>
     </g>
    </g>
    <g id="ytick_14">
     <g id="line2d_45">
      <path d="M 56.603047 264.962833 
L 550.44 264.962833 
" clip-path="url(#p138ba97507)" style="fill: none; stroke: #b0b0b0; stroke-opacity: 0.15; stroke-width: 0.8; stroke-linecap: square"/>
     </g>
     <g id="line2d_46">
      <g>
       <use xlink:href="#m7301604bbb" x="56.603047" y="264.962833" style="stroke: #000000; stroke-width: 0.6"/>
      </g>
     </g>
    </g>
    <g id="ytick_15">
     <g id="line2d_47">
      <path d="M 56.603047 248.873509 
L 550.44 248.873509 
" clip-path="url(#p138ba97507)" style="fill: none; stroke: #b0b0b0; stroke-opacity: 0.15; stroke-width: 0.8; stroke-linecap: square"/>
     </g>
     <g id="line2d_48">
      <g>
       <use xlink:href="#m7301604bbb" x="56.603047" y="248.873509" style="stroke: #000000; stroke-width: 0.6"/>
      </g>
     </g>
    </g>
    <g id="ytick_16">
     <g id="line2d_49">
      <path d="M 56.603047 237.457952 
L 550.44 237.457952 
" clip-path="url(#p138ba97507)" style="fill: none; stroke: #b0b0b0; stroke-opacity: 0.15; stroke-width: 0.8; stroke-linecap: square"/>
     </g>
     <g id="line2d_50">
      <g>
       <use xlink:href="#m7301604bbb" x="56.603047" y="237.457952" style="stroke: #000000; stroke-width: 0.6"/>
      </g>
     </g>
    </g>
    <g id="ytick_17">
     <g id="line2d_51">
      <path d="M 56.603047 228.603358 
L 550.44 228.603358 
" clip-path="url(#p138ba97507)" style="fill: none; stroke: #b0b0b0; stroke-opacity: 0.15; stroke-width: 0.8; stroke-linecap: square"/>
     </g>
     <g id="line2d_52">
      <g>
       <use xlink:href="#m7301604bbb" x="56.603047" y="228.603358" style="stroke: #000000; stroke-width: 0.6"/>
      </g>
     </g>
    </g>
    <g id="ytick_18">
     <g id="line2d_53">
      <path d="M 56.603047 221.368628 
L 550.44 221.368628 
" clip-path="url(#p138ba97507)" style="fill: none; stroke: #b0b0b0; stroke-opacity: 0.15; stroke-width: 0.8; stroke-linecap: square"/>
     </g>
     <g id="line2d_54">
      <g>
       <use xlink:href="#m7301604bbb" x="56.603047" y="221.368628" style="stroke: #000000; stroke-width: 0.6"/>
      </g>
     </g>
    </g>
    <g id="ytick_19">
     <g id="line2d_55">
      <path d="M 56.603047 215.251751 
L 550.44 215.251751 
" clip-path="url(#p138ba97507)" style="fill: none; stroke: #b0b0b0; stroke-opacity: 0.15; stroke-width: 0.8; stroke-linecap: square"/>
     </g>
     <g id="line2d_56">
      <g>
       <use xlink:href="#m7301604bbb" x="56.603047" y="215.251751" style="stroke: #000000; stroke-width: 0.6"/>
      </g>
     </g>
    </g>
    <g id="ytick_20">
     <g id="line2d_57">
      <path d="M 56.603047 209.953071 
L 550.44 209.953071 
" clip-path="url(#p138ba97507)" style="fill: none; stroke: #b0b0b0; stroke-opacity: 0.15; stroke-width: 0.8; stroke-linecap: square"/>
     </g>
     <g id="line2d_58">
      <g>
       <use xlink:href="#m7301604bbb" x="56.603047" y="209.953071" style="stroke: #000000; stroke-width: 0.6"/>
      </g>
     </g>
    </g>
    <g id="ytick_21">
     <g id="line2d_59">
      <path d="M 56.603047 205.279304 
L 550.44 205.279304 
" clip-path="url(#p138ba97507)" style="fill: none; stroke: #b0b0b0; stroke-opacity: 0.15; stroke-width: 0.8; stroke-linecap: square"/>
     </g>
     <g id="line2d_60">
      <g>
       <use xlink:href="#m7301604bbb" x="56.603047" y="205.279304" style="stroke: #000000; stroke-width: 0.6"/>
      </g>
     </g>
    </g>
    <g id="ytick_22">
     <g id="line2d_61">
      <path d="M 56.603047 173.593595 
L 550.44 173.593595 
" clip-path="url(#p138ba97507)" style="fill: none; stroke: #b0b0b0; stroke-opacity: 0.15; stroke-width: 0.8; stroke-linecap: square"/>
     </g>
     <g id="line2d_62">
      <g>
       <use xlink:href="#m7301604bbb" x="56.603047" y="173.593595" style="stroke: #000000; stroke-width: 0.6"/>
      </g>
     </g>
    </g>
    <g id="ytick_23">
     <g id="line2d_63">
      <path d="M 56.603047 157.504271 
L 550.44 157.504271 
" clip-path="url(#p138ba97507)" style="fill: none; stroke: #b0b0b0; stroke-opacity: 0.15; stroke-width: 0.8; stroke-linecap: square"/>
     </g>
     <g id="line2d_64">
      <g>
       <use xlink:href="#m7301604bbb" x="56.603047" y="157.504271" style="stroke: #000000; stroke-width: 0.6"/>
      </g>
     </g>
    </g>
    <g id="ytick_24">
     <g id="line2d_65">
      <path d="M 56.603047 146.088714 
L 550.44 146.088714 
" clip-path="url(#p138ba97507)" style="fill: none; stroke: #b0b0b0; stroke-opacity: 0.15; stroke-width: 0.8; stroke-linecap: square"/>
     </g>
     <g id="line2d_66">
      <g>
       <use xlink:href="#m7301604bbb" x="56.603047" y="146.088714" style="stroke: #000000; stroke-width: 0.6"/>
      </g>
     </g>
    </g>
    <g id="ytick_25">
     <g id="line2d_67">
      <path d="M 56.603047 137.23412 
L 550.44 137.23412 
" clip-path="url(#p138ba97507)" style="fill: none; stroke: #b0b0b0; stroke-opacity: 0.15; stroke-width: 0.8; stroke-linecap: square"/>
     </g>
     <g id="line2d_68">
      <g>
       <use xlink:href="#m7301604bbb" x="56.603047" y="137.23412" style="stroke: #000000; stroke-width: 0.6"/>
      </g>
     </g>
    </g>
    <g id="ytick_26">
     <g id="line2d_69">
      <path d="M 56.603047 129.99939 
L 550.44 129.99939 
" clip-path="url(#p138ba97507)" style="fill: none; stroke: #b0b0b0; stroke-opacity: 0.15; stroke-width: 0.8; stroke-linecap: square"/>
     </g>
     <g id="line2d_70">
      <g>
       <use xlink:href="#m7301604bbb" x="56.603047" y="129.99939" style="stroke: #000000; stroke-width: 0.6"/>
      </g>
     </g>
    </g>
    <g id="ytick_27">
     <g id="line2d_71">
      <path d="M 56.603047 123.882512 
L 550.44 123.882512 
" clip-path="url(#p138ba97507)" style="fill: none; stroke: #b0b0b0; stroke-opacity: 0.15; stroke-width: 0.8; stroke-linecap: square"/>
     </g>
     <g id="line2d_72">
      <g>
       <use xlink:href="#m7301604bbb" x="56.603047" y="123.882512" style="stroke: #000000; stroke-width: 0.6"/>
      </g>
     </g>
    </g>
    <g id="ytick_28">
     <g id="line2d_73">
      <path d="M 56.603047 118.583832 
L 550.44 118.583832 
" clip-path="url(#p138ba97507)" style="fill: none; stroke: #b0b0b0; stroke-opacity: 0.15; stroke-width: 0.8; stroke-linecap: square"/>
     </g>
     <g id="line2d_74">
      <g>
       <use xlink:href="#m7301604bbb" x="56.603047" y="118.583832" style="stroke: #000000; stroke-width: 0.6"/>
      </g>
     </g>
    </g>
    <g id="ytick_29">
     <g id="line2d_75">
      <path d="M 56.603047 113.910065 
L 550.44 113.910065 
" clip-path="url(#p138ba97507)" style="fill: none; stroke: #b0b0b0; stroke-opacity: 0.15; stroke-width: 0.8; stroke-linecap: square"/>
     </g>
     <g id="line2d_76">
      <g>
       <use xlink:href="#m7301604bbb" x="56.603047" y="113.910065" style="stroke: #000000; stroke-width: 0.6"/>
      </g>
     </g>
    </g>
    <g id="ytick_30">
     <g id="line2d_77">
      <path d="M 56.603047 82.224357 
L 550.44 82.224357 
" clip-path="url(#p138ba97507)" style="fill: none; stroke: #b0b0b0; stroke-opacity: 0.15; stroke-width: 0.8; stroke-linecap: square"/>
     </g>
     <g id="line2d_78">
      <g>
       <use xlink:href="#m7301604bbb" x="56.603047" y="82.224357" style="stroke: #000000; stroke-width: 0.6"/>
      </g>
     </g>
    </g>
    <g id="ytick_31">
     <g id="line2d_79">
      <path d="M 56.603047 66.135033 
L 550.44 66.135033 
" clip-path="url(#p138ba97507)" style="fill: none; stroke: #b0b0b0; stroke-opacity: 0.15; stroke-width: 0.8; stroke-linecap: square"/>
     </g>
     <g id="line2d_80">
      <g>
       <use xlink:href="#m7301604bbb" x="56.603047" y="66.135033" style="stroke: #000000; stroke-width: 0.6"/>
      </g>
     </g>
    </g>
    <g id="ytick_32">
     <g id="line2d_81">
      <path d="M 56.603047 54.719475 
L 550.44 54.719475 
" clip-path="url(#p138ba97507)" style="fill: none; stroke: #b0b0b0; stroke-opacity: 0.15; stroke-width: 0.8; stroke-linecap: square"/>
     </g>
     <g id="line2d_82">
      <g>
       <use xlink:href="#m7301604bbb" x="56.603047" y="54.719475" style="stroke: #000000; stroke-width: 0.6"/>
      </g>
     </g>
    </g>
    <g id="ytick_33">
     <g id="line2d_83">
      <path d="M 56.603047 45.864881 
L 550.44 45.864881 
" clip-path="url(#p138ba97507)" style="fill: none; stroke: #b0b0b0; stroke-opacity: 0.15; stroke-width: 0.8; stroke-linecap: square"/>
     </g>
     <g id="line2d_84">
      <g>
       <use xlink:href="#m7301604bbb" x="56.603047" y="45.864881" style="stroke: #000000; stroke-width: 0.6"/>
      </g>
     </g>
    </g>
    <g id="ytick_34">
     <g id="line2d_85">
      <path d="M 56.603047 38.630151 
L 550.44 38.630151 
" clip-path="url(#p138ba97507)" style="fill: none; stroke: #b0b0b0; stroke-opacity: 0.15; stroke-width: 0.8; stroke-linecap: square"/>
     </g>
     <g id="line2d_86">
      <g>
       <use xlink:href="#m7301604bbb" x="56.603047" y="38.630151" style="stroke: #000000; stroke-width: 0.6"/>
      </g>
     </g>
    </g>
    <g id="ytick_35">
     <g id="line2d_87">
      <path d="M 56.603047 32.513274 
L 550.44 32.513274 
" clip-path="url(#p138ba97507)" style="fill: none; stroke: #b0b0b0; stroke-opacity: 0.15; stroke-width: 0.8; stroke-linecap: square"/>
     </g>
     <g id="line2d_88">
      <g>
       <use xlink:href="#m7301604bbb" x="56.603047" y="32.513274" style="stroke: #000000; stroke-width: 0.6"/>
      </g>
     </g>
    </g>
    <g id="ytick_36">
     <g id="line2d_89">
      <path d="M 56.603047 27.214594 
L 550.44 27.214594 
" clip-path="url(#p138ba97507)" style="fill: none; stroke: #b0b0b0; stroke-opacity: 0.15; stroke-width: 0.8; stroke-linecap: square"/>
     </g>
     <g id="line2d_90">
      <g>
       <use xlink:href="#m7301604bbb" x="56.603047" y="27.214594" style="stroke: #000000; stroke-width: 0.6"/>
      </g>
     </g>
    </g>
    <g id="ytick_37">
     <g id="line2d_91">
      <path d="M 56.603047 22.540827 
L 550.44 22.540827 
" clip-path="url(#p138ba97507)" style="fill: none; stroke: #b0b0b0; stroke-opacity: 0.15; stroke-width: 0.8; stroke-linecap: square"/>
     </g>
     <g id="line2d_92">
      <g>
       <use xlink:href="#m7301604bbb" x="56.603047" y="22.540827" style="stroke: #000000; stroke-width: 0.6"/>
      </g>
     </g>
    </g>
    <g id="text_16">
     <!-- $\Lambda(M)$ -->
     <g transform="translate(23.12 216.243477) rotate(-90) scale(0.13 -0.13)">
      <defs>
       <path id="DejaVuSans-330" d="M 716 0 
L 50 0 
L 1831 4666 
L 2547 4666 
L 4325 0 
L 3669 0 
L 2188 4044 
L 716 0 
z
" transform="scale(0.015625)"/>
      </defs>
      <use xlink:href="#DejaVuSans-330" transform="translate(0 0.125)"/>
      <use xlink:href="#DejaVuSans-b" transform="translate(68.408203 0.125)"/>
      <use xlink:href="#DejaVuSans-Oblique-30" transform="translate(107.421875 0.125)"/>
      <use xlink:href="#DejaVuSans-c" transform="translate(193.701172 0.125)"/>
     </g>
    </g>
   </g>
   <g id="line2d_93">
    <path d="M -1 23.341092 
L 1.037195 25.413947 
L 14.807473 38.569041 
L 29.289434 51.594314 
L 44.425301 64.459679 
L 60.141599 77.128609 
L 76.349386 89.582966 
L 92.944875 101.796168 
L 109.810863 113.732415 
L 126.818625 125.373454 
L 143.830307 136.706444 
L 160.701896 147.694244 
L 177.286524 158.328309 
L 193.437958 168.592862 
L 209.014183 178.474799 
L 223.880894 187.950676 
L 237.914732 197.037552 
L 251.006004 205.698337 
L 263.061009 213.942356 
L 274.003705 221.760969 
L 283.776669 229.162075 
L 292.34151 236.132083 
L 299.678641 242.682333 
L 305.786492 248.805542 
L 310.680335 254.525154 
L 314.390763 259.835875 
L 316.961803 264.74909 
L 318.449008 269.266659 
L 318.917262 273.423229 
" clip-path="url(#p138ba97507)" style="fill: none; stroke: #1f77b4; stroke-width: 1.9; stroke-linecap: square"/>
   </g>
   <g id="line2d_94">
    <path d="M -1 45.485663 
L 8.781965 54.591128 
L 26.175081 69.660367 
L 44.450033 84.452083 
L 63.493193 98.938223 
L 83.162414 113.098252 
L 103.289649 126.891533 
L 123.685574 140.269298 
L 144.14578 153.215826 
L 164.458216 165.704901 
L 184.410955 177.729136 
L 203.799667 189.252043 
L 222.434289 200.284372 
L 240.144317 210.810061 
L 256.782598 220.829938 
L 272.227615 230.351631 
L 286.384376 239.385046 
L 299.184046 247.925628 
L 310.58274 255.98156 
L 320.559639 263.5714 
L 329.114704 270.697575 
L 336.266145 277.381111 
L 342.047902 283.635347 
L 346.50714 289.462465 
L 349.701904 294.881962 
L 351.698917 299.889813 
L 352.571564 304.510004 
" clip-path="url(#p138ba97507)" style="fill: none; stroke-dasharray: 11.4,3.8; stroke-dashoffset: 0; stroke: #ff7f0e; stroke-width: 1.9"/>
   </g>
   <g id="line2d_95">
    <path d="M -1 38.848281 
L 3.83837 43.413788 
L 21.87267 59.142006 
L 40.94066 74.572674 
L 60.925033 89.688006 
L 81.677502 104.436766 
L 103.021382 118.795556 
L 124.756083 132.734735 
L 146.663484 146.215315 
L 168.515345 159.22016 
L 190.081512 171.72326 
L 211.137854 183.730476 
L 231.473451 195.219577 
L 250.896685 206.181038 
L 269.23969 216.63431 
L 286.361288 226.565121 
L 302.148405 235.993157 
L 316.516201 244.92018 
L 329.407091 253.35542 
L 340.789034 261.312605 
L 350.653191 268.793836 
L 359.011405 275.830637 
L 365.893433 282.410495 
L 371.34418 288.567179 
L 375.421129 294.295516 
L 378.191793 299.618926 
L 379.731473 304.53747 
L 380.121179 309.065484 
" clip-path="url(#p138ba97507)" style="fill: none; stroke-dasharray: 1.9,3.135; stroke-dashoffset: 0; stroke: #2ca02c; stroke-width: 1.9"/>
   </g>
   <g id="line2d_96">
    <path d="M -1 43.729013 
L 5.848388 50.107689 
L 24.367334 66.060762 
L 43.914925 81.727622 
L 64.37675 97.080127 
L 85.606662 112.062271 
L 107.428754 126.687141 
L 129.641385 140.844017 
L 152.023222 154.569487 
L 174.340764 167.846057 
L 196.356811 180.587729 
L 217.839164 192.840215 
L 238.56862 204.580813 
L 258.345861 215.786916 
L 276.996705 226.485915 
L 294.375624 236.621872 
L 310.367418 246.266953 
L 324.887441 255.389785 
L 337.880478 264.018745 
L 349.318722 272.15631 
L 359.199056 279.813315 
L 367.540059 287.006779 
L 374.378841 293.747794 
L 379.767976 300.053992 
L 383.772506 305.927091 
L 386.467219 311.390473 
L 387.934208 316.453473 
L 388.260503 321.122763 
" clip-path="url(#p138ba97507)" style="fill: none; stroke-dasharray: 12.16,3.04,1.9,3.04; stroke-dashoffset: 0; stroke: #d62728; stroke-width: 1.9"/>
   </g>
   <g id="line2d_97">
    <path d="M 24.093355 -1 
L 31.849568 6.233243 
L 44.456115 17.525669 
L 57.422553 28.706131 
L 70.721443 39.75414 
L 84.32096 50.691714 
L 98.184321 61.491181 
L 112.269851 72.168128 
L 126.53089 82.702111 
L 140.915851 93.093245 
L 155.368229 103.332103 
L 169.826891 113.417859 
L 184.226517 123.334493 
L 198.497981 133.06871 
L 212.56914 142.612484 
L 226.365566 151.973725 
L 239.811506 161.128134 
L 252.83091 170.071108 
L 265.348607 178.786421 
L 277.291529 187.275787 
L 288.589931 195.524362 
L 299.178584 203.522262 
L 308.997951 211.258334 
L 317.995342 218.712632 
L 326.125668 225.904658 
L 333.352367 232.817908 
L 339.647885 239.420557 
L 344.994094 245.741974 
L 349.382395 251.750603 
L 352.813691 257.455274 
L 355.298132 262.836198 
L 356.854657 267.909529 
L 357.510405 272.664874 
" clip-path="url(#p138ba97507)" style="fill: none; stroke-dasharray: 17.1,3.8,3.8,3.8; stroke-dashoffset: 0; stroke: #222222; stroke-width: 1.9"/>
   </g>
   <g id="line2d_98">
    <path d="M 25.993476 -1 
L 26.900228 -0.149129 
L 42.281552 13.484003 
L 58.45941 27.073947 
L 75.439394 40.606416 
L 93.217024 54.084915 
L 111.775168 67.494176 
L 131.081368 80.820242 
L 151.084778 94.054437 
L 171.715253 107.178039 
L 192.88106 120.152737 
L 214.469133 132.973105 
L 236.345626 145.600323 
L 258.357642 158.022365 
L 280.336162 170.19878 
L 302.099999 182.109079 
L 323.460543 193.726436 
L 344.22695 205.017992 
L 364.211758 215.97813 
L 383.236389 226.575957 
L 401.1362 236.789965 
L 417.764902 246.61217 
L 432.998256 256.023134 
L 446.736446 265.013722 
L 458.905736 273.582129 
L 469.458658 281.720165 
L 478.373711 289.408331 
L 485.653845 296.665207 
L 491.324416 303.482616 
L 495.430665 309.88126 
L 498.034981 315.822579 
L 499.213912 321.34453 
" clip-path="url(#p138ba97507)" style="fill: none; stroke-dasharray: 11.4,3.8,1.9,3.8,1.9,3.8; stroke-dashoffset: 0; stroke: #9467bd; stroke-width: 1.9"/>
   </g>
   <g id="line2d_99">
    <path d="M -1 5.4839 
L 2.281292 8.901174 
L 14.932836 21.321289 
L 28.22798 33.67275 
L 42.130106 45.919883 
L 56.590205 58.045805 
L 71.54662 70.016707 
L 86.925141 81.809132 
L 102.639588 93.404158 
L 118.592723 104.770399 
L 134.677599 115.901491 
L 150.779321 126.769667 
L 166.777201 137.35509 
L 182.547133 147.646014 
L 197.964258 157.618579 
L 212.905654 167.279568 
L 227.253096 176.593002 
L 240.895547 185.561419 
L 253.73167 194.168888 
L 265.67179 202.409169 
L 276.63953 210.276578 
L 286.573124 217.772026 
L 295.426104 224.898175 
L 303.1677 231.628958 
L 309.782616 238.002028 
L 315.270579 243.996429 
L 319.645398 249.597088 
L 322.933875 254.858787 
L 325.174174 259.760499 
L 326.414309 264.297602 
L 326.71024 268.490728 
" clip-path="url(#p138ba97507)" style="fill: none; stroke-dasharray: 5.7,1.9,1.9,1.9; stroke-dashoffset: 0; stroke: #8c564b; stroke-width: 1.9"/>
   </g>
   <g id="patch_3">
    <path d="M 56.603047 383.836953 
L 56.603047 18.36 
" style="fill: none; stroke: #000000; stroke-width: 0.9; stroke-linejoin: miter; stroke-linecap: square"/>
   </g>
   <g id="patch_4">
    <path d="M 550.44 383.836953 
L 550.44 18.36 
" style="fill: none; stroke: #000000; stroke-width: 0.9; stroke-linejoin: miter; stroke-linecap: square"/>
   </g>
   <g id="patch_5">
    <path d="M 56.603047 383.836953 
L 550.44 383.836953 
" style="fill: none; stroke: #000000; stroke-width: 0.9; stroke-linejoin: miter; stroke-linecap: square"/>
   </g>
   <g id="patch_6">
    <path d="M 56.603047 18.36 
L 550.44 18.36 
" style="fill: none; stroke: #000000; stroke-width: 0.9; stroke-linejoin: miter; stroke-linecap: square"/>
   </g>
   <g id="legend_1">
    <g id="line2d_100">
     <path d="M 465.03 30.148594 
L 479.88 30.148594 
L 494.73 30.148594 
" style="fill: none; stroke: #1f77b4; stroke-width: 2; stroke-linecap: square"/>
    </g>
    <g id="text_17">
     <!-- GQHD1 -->
     <g transform="translate(501.93 33.298594) scale(0.09 -0.09)">
      <defs>
       <path id="DejaVuSans-2a" d="M 3809 666 
L 3809 1919 
L 2778 1919 
L 2778 2438 
L 4434 2438 
L 4434 434 
Q 4069 175 3628 42 
Q 3188 -91 2688 -91 
Q 1594 -91 976 548 
Q 359 1188 359 2328 
Q 359 3472 976 4111 
Q 1594 4750 2688 4750 
Q 3144 4750 3555 4637 
Q 3966 4525 4313 4306 
L 4313 3634 
Q 3963 3931 3569 4081 
Q 3175 4231 2741 4231 
Q 1884 4231 1454 3753 
Q 1025 3275 1025 2328 
Q 1025 1384 1454 906 
Q 1884 428 2741 428 
Q 3075 428 3337 486 
Q 3600 544 3809 666 
z
" transform="scale(0.015625)"/>
       <path id="DejaVuSans-34" d="M 2522 4238 
Q 1834 4238 1429 3725 
Q 1025 3213 1025 2328 
Q 1025 1447 1429 934 
Q 1834 422 2522 422 
Q 3209 422 3611 934 
Q 4013 1447 4013 2328 
Q 4013 3213 3611 3725 
Q 3209 4238 2522 4238 
z
M 3406 84 
L 4238 -825 
L 3475 -825 
L 2784 -78 
Q 2681 -84 2626 -87 
Q 2572 -91 2522 -91 
Q 1538 -91 948 567 
Q 359 1225 359 2328 
Q 359 3434 948 4092 
Q 1538 4750 2522 4750 
Q 3503 4750 4090 4092 
Q 4678 3434 4678 2328 
Q 4678 1516 4351 937 
Q 4025 359 3406 84 
z
" transform="scale(0.015625)"/>
       <path id="DejaVuSans-2b" d="M 628 4666 
L 1259 4666 
L 1259 2753 
L 3553 2753 
L 3553 4666 
L 4184 4666 
L 4184 0 
L 3553 0 
L 3553 2222 
L 1259 2222 
L 1259 0 
L 628 0 
L 628 4666 
z
" transform="scale(0.015625)"/>
       <path id="DejaVuSans-27" d="M 1259 4147 
L 1259 519 
L 2022 519 
Q 2988 519 3436 956 
Q 3884 1394 3884 2338 
Q 3884 3275 3436 3711 
Q 2988 4147 2022 4147 
L 1259 4147 
z
M 628 4666 
L 1925 4666 
Q 3281 4666 3915 4102 
Q 4550 3538 4550 2338 
Q 4550 1131 3912 565 
Q 3275 0 1925 0 
L 628 0 
L 628 4666 
z
" transform="scale(0.015625)"/>
      </defs>
      <use xlink:href="#DejaVuSans-2a"/>
      <use xlink:href="#DejaVuSans-34" transform="translate(77.484375 0)"/>
      <use xlink:href="#DejaVuSans-2b" transform="translate(156.203125 0)"/>
      <use xlink:href="#DejaVuSans-27" transform="translate(231.40625 0)"/>
      <use xlink:href="#DejaVuSans-14" transform="translate(308.40625 0)"/>
     </g>
    </g>
    <g id="line2d_101">
     <path d="M 465.03 43.649297 
L 479.88 43.649297 
L 494.73 43.649297 
" style="fill: none; stroke-dasharray: 12,4; stroke-dashoffset: 0; stroke: #ff7f0e; stroke-width: 2"/>
    </g>
    <g id="text_18">
     <!-- GQHD2 -->
     <g transform="translate(501.93 46.799297) scale(0.09 -0.09)">
      <use xlink:href="#DejaVuSans-2a"/>
      <use xlink:href="#DejaVuSans-34" transform="translate(77.484375 0)"/>
      <use xlink:href="#DejaVuSans-2b" transform="translate(156.203125 0)"/>
      <use xlink:href="#DejaVuSans-27" transform="translate(231.40625 0)"/>
      <use xlink:href="#DejaVuSans-15" transform="translate(308.40625 0)"/>
     </g>
    </g>
    <g id="line2d_102">
     <path d="M 465.03 57.15 
L 479.88 57.15 
L 494.73 57.15 
" style="fill: none; stroke-dasharray: 2,3.3; stroke-dashoffset: 0; stroke: #2ca02c; stroke-width: 2"/>
    </g>
    <g id="text_19">
     <!-- GQHD3 -->
     <g transform="translate(501.93 60.3) scale(0.09 -0.09)">
      <use xlink:href="#DejaVuSans-2a"/>
      <use xlink:href="#DejaVuSans-34" transform="translate(77.484375 0)"/>
      <use xlink:href="#DejaVuSans-2b" transform="translate(156.203125 0)"/>
      <use xlink:href="#DejaVuSans-27" transform="translate(231.40625 0)"/>
      <use xlink:href="#DejaVuSans-16" transform="translate(308.40625 0)"/>
     </g>
    </g>
    <g id="line2d_103">
     <path d="M 465.03 70.650703 
L 479.88 70.650703 
L 494.73 70.650703 
" style="fill: none; stroke-dasharray: 12.8,3.2,2,3.2; stroke-dashoffset: 0; stroke: #d62728; stroke-width: 2"/>
    </g>
    <g id="text_20">
     <!-- GQHD4 -->
     <g transform="translate(501.93 73.800703) scale(0.09 -0.09)">
      <use xlink:href="#DejaVuSans-2a"/>
      <use xlink:href="#DejaVuSans-34" transform="translate(77.484375 0)"/>
      <use xlink:href="#DejaVuSans-2b" transform="translate(156.203125 0)"/>
      <use xlink:href="#DejaVuSans-27" transform="translate(231.40625 0)"/>
      <use xlink:href="#DejaVuSans-17" transform="translate(308.40625 0)"/>
     </g>
    </g>
    <g id="line2d_104">
     <path d="M 465.03 84.151406 
L 479.88 84.151406 
L 494.73 84.151406 
" style="fill: none; stroke-dasharray: 18,4,4,4; stroke-dashoffset: 0; stroke: #222222; stroke-width: 2"/>
    </g>
    <g id="text_21">
     <!-- TM1 -->
     <g transform="translate(501.93 87.301406) scale(0.09 -0.09)">
      <defs>
       <path id="DejaVuSans-37" d="M -19 4666 
L 3928 4666 
L 3928 4134 
L 2272 4134 
L 2272 0 
L 1638 0 
L 1638 4134 
L -19 4134 
L -19 4666 
z
" transform="scale(0.015625)"/>
       <path id="DejaVuSans-30" d="M 628 4666 
L 1569 4666 
L 2759 1491 
L 3956 4666 
L 4897 4666 
L 4897 0 
L 4281 0 
L 4281 4097 
L 3078 897 
L 2444 897 
L 1241 4097 
L 1241 0 
L 628 0 
L 628 4666 
z
" transform="scale(0.015625)"/>
      </defs>
      <use xlink:href="#DejaVuSans-37"/>
      <use xlink:href="#DejaVuSans-30" transform="translate(61.078125 0)"/>
      <use xlink:href="#DejaVuSans-14" transform="translate(147.359375 0)"/>
     </g>
    </g>
    <g id="line2d_105">
     <path d="M 465.03 97.652109 
L 479.88 97.652109 
L 494.73 97.652109 
" style="fill: none; stroke-dasharray: 12,4,2,4,2,4; stroke-dashoffset: 0; stroke: #9467bd; stroke-width: 2"/>
    </g>
    <g id="text_22">
     <!-- NL3 -->
     <g transform="translate(501.93 100.802109) scale(0.09 -0.09)">
      <defs>
       <path id="DejaVuSans-31" d="M 628 4666 
L 1478 4666 
L 3547 763 
L 3547 4666 
L 4159 4666 
L 4159 0 
L 3309 0 
L 1241 3903 
L 1241 0 
L 628 0 
L 628 4666 
z
" transform="scale(0.015625)"/>
       <path id="DejaVuSans-2f" d="M 628 4666 
L 1259 4666 
L 1259 531 
L 3531 531 
L 3531 0 
L 628 0 
L 628 4666 
z
" transform="scale(0.015625)"/>
      </defs>
      <use xlink:href="#DejaVuSans-31"/>
      <use xlink:href="#DejaVuSans-2f" transform="translate(74.8125 0)"/>
      <use xlink:href="#DejaVuSans-16" transform="translate(130.53125 0)"/>
     </g>
    </g>
    <g id="line2d_106">
     <path d="M 465.03 111.152813 
L 479.88 111.152813 
L 494.73 111.152813 
" style="fill: none; stroke-dasharray: 6,2,2,2; stroke-dashoffset: 0; stroke: #8c564b; stroke-width: 2"/>
    </g>
    <g id="text_23">
     <!-- FSU-$\delta6.7$ -->
     <g transform="translate(501.93 114.302813) scale(0.09 -0.09)">
      <defs>
       <path id="DejaVuSans-29" d="M 628 4666 
L 3309 4666 
L 3309 4134 
L 1259 4134 
L 1259 2759 
L 3109 2759 
L 3109 2228 
L 1259 2228 
L 1259 0 
L 628 0 
L 628 4666 
z
" transform="scale(0.015625)"/>
       <path id="DejaVuSans-36" d="M 3425 4513 
L 3425 3897 
Q 3066 4069 2747 4153 
Q 2428 4238 2131 4238 
Q 1616 4238 1336 4038 
Q 1056 3838 1056 3469 
Q 1056 3159 1242 3001 
Q 1428 2844 1947 2747 
L 2328 2669 
Q 3034 2534 3370 2195 
Q 3706 1856 3706 1288 
Q 3706 609 3251 259 
Q 2797 -91 1919 -91 
Q 1588 -91 1214 -16 
Q 841 59 441 206 
L 441 856 
Q 825 641 1194 531 
Q 1563 422 1919 422 
Q 2459 422 2753 634 
Q 3047 847 3047 1241 
Q 3047 1584 2836 1778 
Q 2625 1972 2144 2069 
L 1759 2144 
Q 1053 2284 737 2584 
Q 422 2884 422 3419 
Q 422 4038 858 4394 
Q 1294 4750 2059 4750 
Q 2388 4750 2728 4690 
Q 3069 4631 3425 4513 
z
" transform="scale(0.015625)"/>
       <path id="DejaVuSans-38" d="M 556 4666 
L 1191 4666 
L 1191 1831 
Q 1191 1081 1462 751 
Q 1734 422 2344 422 
Q 2950 422 3222 751 
Q 3494 1081 3494 1831 
L 3494 4666 
L 4128 4666 
L 4128 1753 
Q 4128 841 3676 375 
Q 3225 -91 2344 -91 
Q 1459 -91 1007 375 
Q 556 841 556 1753 
L 556 4666 
z
" transform="scale(0.015625)"/>
       <path id="DejaVuSans-10" d="M 313 2009 
L 1997 2009 
L 1997 1497 
L 313 1497 
L 313 2009 
z
" transform="scale(0.015625)"/>
       <path id="DejaVuSans-Oblique-348" d="M 3472 4053 
Q 3197 4272 2450 4272 
Q 1659 4272 1588 3906 
Q 1531 3619 2328 3469 
Q 2953 3353 3253 3003 
Q 3616 2581 3447 1716 
Q 3284 888 2763 400 
Q 2238 -91 1488 -91 
Q 741 -91 406 400 
Q 72 888 241 1747 
Q 363 2384 891 2900 
Q 1097 3100 1353 3213 
Q 913 3459 1000 3900 
Q 1166 4750 2544 4750 
Q 3234 4750 3566 4531 
L 3472 4053 
z
M 1753 3056 
Q 1525 2966 1306 2738 
Q 969 2384 847 1747 
Q 722 1113 919 756 
Q 1119 397 1584 397 
Q 2044 397 2381 759 
Q 2722 1122 2838 1716 
Q 2956 2338 2731 2638 
Q 2491 2959 2103 2994 
Q 1906 3013 1753 3056 
z
" transform="scale(0.015625)"/>
       <path id="DejaVuSans-19" d="M 2113 2584 
Q 1688 2584 1439 2293 
Q 1191 2003 1191 1497 
Q 1191 994 1439 701 
Q 1688 409 2113 409 
Q 2538 409 2786 701 
Q 3034 994 3034 1497 
Q 3034 2003 2786 2293 
Q 2538 2584 2113 2584 
z
M 3366 4563 
L 3366 3988 
Q 3128 4100 2886 4159 
Q 2644 4219 2406 4219 
Q 1781 4219 1451 3797 
Q 1122 3375 1075 2522 
Q 1259 2794 1537 2939 
Q 1816 3084 2150 3084 
Q 2853 3084 3261 2657 
Q 3669 2231 3669 1497 
Q 3669 778 3244 343 
Q 2819 -91 2113 -91 
Q 1303 -91 875 529 
Q 447 1150 447 2328 
Q 447 3434 972 4092 
Q 1497 4750 2381 4750 
Q 2619 4750 2861 4703 
Q 3103 4656 3366 4563 
z
" transform="scale(0.015625)"/>
      </defs>
      <use xlink:href="#DejaVuSans-29" transform="translate(0 0.78125)"/>
      <use xlink:href="#DejaVuSans-36" transform="translate(55.519531 0.78125)"/>
      <use xlink:href="#DejaVuSans-38" transform="translate(118.996094 0.78125)"/>
      <use xlink:href="#DejaVuSans-10" transform="translate(192.189453 0.78125)"/>
      <use xlink:href="#DejaVuSans-Oblique-348" transform="translate(228.273438 0.78125)"/>
      <use xlink:href="#DejaVuSans-19" transform="translate(289.455078 0.78125)"/>
      <use xlink:href="#DejaVuSans-11" transform="translate(353.078125 0.78125)"/>
      <use xlink:href="#DejaVuSans-1a" transform="translate(384.865234 0.78125)"/>
     </g>
    </g>
   </g>
  </g>
 </g>
 <defs>
  <clipPath id="p138ba97507">
   <rect x="56.603047" y="18.36" width="493.836953" height="365.476953"/>
  </clipPath>
 </defs>
</svg>
